<?xml version="1.0" encoding="UTF-8" standalone="no"?> <svg enable-background="new 0 0 32 32" height="512" viewBox="0 0 32 32" width="512" xmlns="http://www.w3.org/2000/svg"><g id="BG"><path d="m26 32h-20c-3.314 0-6-2.686-6-6v-20c0-3.314 2.686-6 6-6h20c3.314 0 6 2.686 6 6v20c0 3.314-2.686 6-6 6z" fill="#e3f8fa"/></g><g id="bold"><path d="m18.406 9.167h-.573-3.667-.573c-.695 0-1.26.617-1.26 1.375v9.25c0 .758.565 1.375 1.26 1.375h4.813c.695 0 1.26-.617 1.26-1.375v-9.25c.001-.759-.565-1.375-1.26-1.375zm.344 10.5c0 .276-.205.5-.458.5h-4.583c-.253 0-.458-.224-.458-.5v-9.167c0-.276.205-.5.458-.5h.229c.253 0 .458.224.458.5s.205.5.458.5h2.292c.253 0 .458-.224.458-.5s.205-.5.458-.5h.229c.253 0 .458.224.458.5v9.167z" fill="#26c6da"/><g fill="#8ce1eb"><path d="m10.333 22.667c-.159 0-.318-.056-.446-.171l-1.667-1.5c-.135-.123-.215-.296-.22-.478-.005-.183.066-.36.195-.489l1.195-1.195-1.195-1.195c-.26-.26-.26-.682 0-.943l1.196-1.196-1.195-1.195c-.26-.26-.26-.682 0-.943l1.195-1.195-1.195-1.195c-.13-.129-.2-.306-.195-.489s.085-.355.221-.478l1.667-1.5c.274-.246.695-.224.941.049.246.274.224.695-.049.941l-1.145 1.03 1.17 1.17c.26.26.26.682 0 .943l-1.195 1.195 1.195 1.195c.26.26.26.682 0 .943l-1.195 1.195 1.195 1.195c.26.26.26.682 0 .943l-1.17 1.17 1.145 1.03c.273.246.296.668.049.941-.133.147-.314.222-.497.222z"/><path d="m21.667 22.667c-.182 0-.364-.075-.495-.221-.246-.274-.224-.695.049-.941l1.145-1.03-1.17-1.17c-.26-.26-.26-.682 0-.943l1.195-1.195-1.195-1.195c-.26-.26-.26-.682 0-.943l1.195-1.195-1.195-1.195c-.26-.26-.26-.682 0-.943l1.17-1.17-1.145-1.03c-.273-.246-.296-.668-.049-.941s.668-.296.941-.049l1.667 1.5c.136.122.215.295.221.478.005.183-.066.36-.195.489l-1.195 1.195 1.195 1.195c.26.26.26.682 0 .943l-1.197 1.194 1.195 1.195c.26.26.26.682 0 .943l-1.195 1.195 1.195 1.195c.13.129.2.306.195.489s-.085.355-.221.478l-1.667 1.5c-.126.115-.285.172-.444.172z"/></g></g></svg>