<svg width="22" height="24" viewBox="0 0 22 24" fill="none" xmlns="http://www.w3.org/2000/svg">
<path d="M21.9055 15.583L18.902 7.88142C18.2617 5.95017 16.7363 4.55329 14.9059 4.16892C15.6793 3.67204 16.8953 2.4861 16.3754 0.311105C16.3195 0.0767298 16.0703 -0.0592076 15.8598 0.0251673L7.17148 3.57361C1.54258 5.78142 0 11.1955 0 18.6908V22.497C0 23.3267 0.614453 23.997 1.375 23.997H11.5242C12.5469 23.997 13.2129 22.8252 12.7531 21.8267L11 17.997V17.9642C9.04062 17.8002 7.36484 16.5252 6.51836 14.7017C6.44961 14.5564 6.47969 14.3783 6.58711 14.2658L7.10703 13.6986C7.27461 13.5158 7.5625 13.572 7.66133 13.8111C8.29727 15.3908 9.73242 16.5017 11.4168 16.5017C12.1559 16.5017 12.8348 16.2627 13.4277 15.883L15.4043 18.8783C15.6621 19.272 16.0789 19.5017 16.5215 19.5017H18.6828C19.048 19.5017 19.3961 19.3424 19.6539 19.0611L21.6004 17.1955C21.9828 16.7689 22.1031 16.1361 21.9055 15.583ZM14.0938 10.497C13.5223 10.497 13.0625 9.99548 13.0625 9.37204C13.0625 8.7486 13.5223 8.24704 14.0938 8.24704C14.6652 8.24704 15.125 8.7486 15.125 9.37204C15.125 9.99548 14.6652 10.497 14.0938 10.497Z" fill="black"/>
</svg>
