<?xml version="1.0" encoding="UTF-8" standalone="no"?>
<svg
   xmlns:dc="http://purl.org/dc/elements/1.1/"
   xmlns:cc="http://creativecommons.org/ns#"
   xmlns:rdf="http://www.w3.org/1999/02/22-rdf-syntax-ns#"
   xmlns:svg="http://www.w3.org/2000/svg"
   xmlns="http://www.w3.org/2000/svg"
   xmlns:sodipodi="http://sodipodi.sourceforge.net/DTD/sodipodi-0.dtd"
   xmlns:inkscape="http://www.inkscape.org/namespaces/inkscape"
   id="Layer_1"
   data-name="Layer 1"
   viewBox="0 0 137.36 45.66"
   version="1.1"
   sodipodi:docname="continue.svg">
  <metadata
     id="metadata17">
    <rdf:RDF>
      <cc:Work
         rdf:about="">
        <dc:format>image/svg+xml</dc:format>
        <dc:type
           rdf:resource="http://purl.org/dc/dcmitype/StillImage" />
      </cc:Work>
    </rdf:RDF>
  </metadata>
  <sodipodi:namedview
     pagecolor="#ffffff"
     bordercolor="#666666"
     borderopacity="1"
     objecttolerance="10"
     gridtolerance="10"
     guidetolerance="10"
     inkscape:pageopacity="0"
     inkscape:pageshadow="2"
     inkscape:window-width="640"
     inkscape:window-height="480"
     id="namedview15" />
  <defs
     id="defs4">
    <style
       id="style2">.cls-1{font-size:36px;font-family:Arial-BoldMT, Arial;font-weight:700;}.cls-2{letter-spacing:-0.02em;}</style>
  </defs>
  <title
     id="title6">continue</title>
  <g
     aria-label="Tiếp tục"
     transform="translate(0,32.11)"
     id="text12"
     style="font-weight:700;font-size:36px;font-family:Arial-BoldMT, Arial"
     class="cls-1">
    <path
       d="M 8.4199219,0 V -21.410156 H 0.7734375 v -4.359375 H 21.251953 v 4.359375 H 13.623047 V 0 Z"
       style="letter-spacing:-0.02em"
       id="path19" />
    <path
       d="m 23.923985,-21.199219 v -4.570312 h 4.939453 v 4.570312 z m 0,21.199219 v -18.667969 h 4.939453 V 0 Z"
       id="path21" />
    <path
       d="m 44.736485,-5.9414062 4.921875,0.8261718 q -0.949219,2.7070313 -3.00586,4.1308594 -2.039062,1.40625 -5.115234,1.40625 -4.869141,0 -7.207031,-3.1816406 -1.845704,-2.5488281 -1.845704,-6.4335938 0,-4.6406246 2.425782,-7.2597656 2.425781,-2.636719 6.134765,-2.636719 4.166016,0 6.574219,2.759766 2.408203,2.742187 2.302734,8.4199218 h -12.375 q 0.05274,2.1972656 1.195313,3.4277343 1.142578,1.2128906 2.847656,1.2128906 1.160156,0 1.951172,-0.6328125 0.791016,-0.6328124 1.195313,-2.0390624 z m 0.28125,-4.9921878 q -0.05273,-2.144531 -1.107422,-3.251953 -1.054688,-1.125 -2.566407,-1.125 -1.617187,0 -2.671875,1.177734 -1.054687,1.177735 -1.037109,3.199219 z m -9.75586,-10.089843 3.691406,-5.185547 h 4.570313 l 3.638672,5.185547 H 43.18961 l -2.039063,-2.619141 -1.898437,2.619141 z m 3.621094,-6.134766 2.267578,-4.957031 h 5.537109 l -4.675781,4.957031 z"
       id="path23" />
    <path
       d="m 53.806797,-18.667969 h 4.605469 v 2.742188 q 0.896484,-1.40625 2.425781,-2.285156 1.529297,-0.878907 3.392578,-0.878907 3.251953,0 5.519531,2.548828 2.267579,2.548828 2.267579,7.1015629 0,4.6757812 -2.285157,7.2773437 -2.285156,2.5839844 -5.537109,2.5839844 -1.546875,0 -2.8125,-0.61523437 -1.248047,-0.61523438 -2.636719,-2.10937503 v 9.4042969 h -4.939453 z m 4.886719,9.0175784 q 0,3.1464844 1.248047,4.6582031 1.248047,1.4941406 3.041015,1.4941406 1.722657,0 2.865235,-1.3710937 1.142578,-1.3886719 1.142578,-4.5351563 0,-2.9355471 -1.177735,-4.3593751 -1.177734,-1.423828 -2.917968,-1.423828 -1.810547,0 -3.00586,1.40625 -1.195312,1.388672 -1.195312,4.1308594 z"
       id="path25" />
    <path
       d="m 94.500156,-18.667969 v 3.9375 h -3.375 v 7.5234378 q 0,2.2851562 0.08789,2.671875 0.105469,0.3691406 0.439453,0.6152343 0.351563,0.2460938 0.84375,0.2460938 0.685547,0 1.986328,-0.4746094 l 0.421875,3.83203125 Q 93.181797,0.421875 91.00211,0.421875 q -1.335938,0 -2.408204,-0.43945313 -1.072265,-0.45703125 -1.582031,-1.16015627 -0.492187,-0.7207031 -0.685547,-1.9335937 -0.158203,-0.8613282 -0.158203,-3.4804688 v -8.1386721 h -2.267578 v -3.9375 h 2.267578 v -3.708984 l 4.957031,-2.882813 v 6.591797 z"
       id="path27" />
    <path
       d="m 110.215,0 v -2.7949219 q -1.01953,1.4941407 -2.68945,2.35546877 -1.65235,0.86132813 -3.49805,0.86132813 -1.88086,0 -3.375,-0.82617188 Q 99.15836,-1.2304687 98.490391,-2.7246094 97.822422,-4.21875 97.822422,-6.8554687 V -18.667969 h 4.939458 v 8.578125 q 0,3.9375003 0.26367,4.8339846 0.28125,0.8789063 1.00195,1.40625 0.7207,0.5097656 1.82813,0.5097656 1.26562,0 2.26757,-0.6855468 1.00196,-0.703125 1.3711,-1.7226563 0.36914,-1.0371093 0.36914,-5.0449221 v -7.875 h 4.93945 V 0 Z m -6.82031,7.0488281 V 2.109375 h 4.93945 v 4.9394531 z"
       id="path29" />
    <path
       d="m 136.19547,-13.148438 -4.86914,0.878907 q -0.2461,-1.458985 -1.125,-2.197266 -0.86133,-0.738281 -2.25,-0.738281 -1.8457,0 -2.95313,1.283203 -1.08984,1.265625 -1.08984,4.2539062 0,3.3222657 1.10742,4.6933594 1.125,1.3710938 3.00586,1.3710938 1.40625,0 2.30274,-0.7910156 0.89648,-0.8085938 1.26562,-2.7597657 l 4.85156,0.8261719 q -0.75586,3.3398437 -2.90039,5.0449219 -2.14453,1.7050781 -5.74804,1.7050781 -4.09571,0 -6.53907,-2.5839844 -2.42578,-2.5839843 -2.42578,-7.1542969 0,-4.6230467 2.44336,-7.1894527 2.44336,-2.583985 6.60938,-2.583985 3.41015,0 5.41406,1.476563 2.02148,1.458984 2.90039,4.464843 z"
       id="path31" />
  </g>
</svg>
