<?xml version="1.0" encoding="UTF-8" standalone="no"?>
<svg
   xmlns:dc="http://purl.org/dc/elements/1.1/"
   xmlns:cc="http://creativecommons.org/ns#"
   xmlns:rdf="http://www.w3.org/1999/02/22-rdf-syntax-ns#"
   xmlns:svg="http://www.w3.org/2000/svg"
   xmlns="http://www.w3.org/2000/svg"
   xmlns:sodipodi="http://sodipodi.sourceforge.net/DTD/sodipodi-0.dtd"
   xmlns:inkscape="http://www.inkscape.org/namespaces/inkscape"
   id="Layer_1"
   data-name="Layer 1"
   viewBox="0 0 97.98 44.44"
   version="1.1"
   sodipodi:docname="exit.svg">
  <metadata
     id="metadata13">
    <rdf:RDF>
      <cc:Work
         rdf:about="">
        <dc:format>image/svg+xml</dc:format>
        <dc:type
           rdf:resource="http://purl.org/dc/dcmitype/StillImage" />
      </cc:Work>
    </rdf:RDF>
  </metadata>
  <sodipodi:namedview
     pagecolor="#ffffff"
     bordercolor="#666666"
     borderopacity="1"
     objecttolerance="10"
     gridtolerance="10"
     guidetolerance="10"
     inkscape:pageopacity="0"
     inkscape:pageshadow="2"
     inkscape:window-width="640"
     inkscape:window-height="480"
     id="namedview11" />
  <defs
     id="defs4">
    <style
       id="style2">.cls-1{font-size:36px;font-family:Arial-BoldMT, Arial;font-weight:700;}</style>
  </defs>
  <title
     id="title6">exit</title>
  <g
     aria-label="Thoát"
     transform="translate(0,30.88)"
     id="text8"
     style="font-weight:700;font-size:36px;font-family:Arial-BoldMT, Arial"
     class="cls-1">
    <path
       d="M 8.4199219,0 V -21.410156 H 0.7734375 v -4.359375 H 21.251953 v 4.359375 H 13.623047 V 0 Z"
       style="font-weight:700;font-size:36px;font-family:Arial-BoldMT, Arial"
       id="path15" />
    <path
       d="m 29.496094,-25.769531 v 9.474609 q 2.390625,-2.794922 5.71289,-2.794922 1.705078,0 3.076172,0.632813 1.371094,0.632812 2.056641,1.617187 0.703125,0.984375 0.949219,2.179688 0.263671,1.195312 0.263671,3.708984 V 0 h -4.939453 v -9.8613281 q 0,-2.9355469 -0.28125,-3.7265629 -0.28125,-0.791015 -1.001953,-1.248047 -0.703125,-0.474609 -1.77539,-0.474609 -1.230469,0 -2.197266,0.597656 -0.966797,0.597657 -1.423828,1.810547 -0.439453,1.195313 -0.439453,3.5507815 V 0 h -4.939453 v -25.769531 z"
       style="font-weight:700;font-size:36px;font-family:Arial-BoldMT, Arial"
       id="path17" />
    <path
       d="m 45.421875,-9.5976563 q 0,-2.4609377 1.212891,-4.7636717 1.21289,-2.302734 3.427734,-3.515625 2.232422,-1.212891 4.974609,-1.212891 4.236328,0 6.94336,2.759766 2.707031,2.742187 2.707031,6.9433592 0,4.2363282 -2.742188,7.03125 -2.724609,2.7773438 -6.873046,2.7773438 -2.566407,0 -4.904297,-1.16015625 -2.320313,-1.16015625 -3.533203,-3.39257815 -1.212891,-2.25 -1.212891,-5.4667969 z m 5.0625,0.2636719 q 0,2.7773438 1.318359,4.2539063 1.31836,1.4765625 3.251953,1.4765625 1.933594,0 3.234375,-1.4765625 1.31836,-1.4765625 1.31836,-4.2890625 0,-2.7421874 -1.31836,-4.2187504 -1.300781,-1.476562 -3.234375,-1.476562 -1.933593,0 -3.251953,1.476562 -1.318359,1.476563 -1.318359,4.2539066 z"
       style="font-weight:700;font-size:36px;font-family:Arial-BoldMT, Arial"
       id="path19" />
    <path
       d="m 72.246094,-12.972656 -4.482422,-0.808594 q 0.755859,-2.707031 2.601562,-4.007812 1.845703,-1.300782 5.484375,-1.300782 3.304688,0 4.921875,0.791016 1.617188,0.773437 2.267578,1.986328 0.667969,1.195312 0.667969,4.412109 l -0.05273,5.7656254 q 0,2.4609375 0.228515,3.6386718 Q 84.128906,-1.3359375 84.779297,0 H 79.892578 Q 79.699219,-0.4921875 79.417969,-1.4589844 79.294922,-1.8984375 79.242187,-2.0390625 77.976562,-0.80859375 76.535156,-0.19335937 75.09375,0.421875 73.458984,0.421875 q -2.882812,0 -4.552734,-1.5644531 -1.652344,-1.5644532 -1.652344,-3.9550781 0,-1.5820313 0.75586,-2.8125 0.755859,-1.2480469 2.109375,-1.8984376 1.371093,-0.6679692 3.9375,-1.1601562 3.46289,-0.650391 4.798828,-1.212891 v -0.492187 q 0,-1.423828 -0.703125,-2.021485 -0.703125,-0.615234 -2.654297,-0.615234 -1.31836,0 -2.056641,0.527344 -0.738281,0.509765 -1.195312,1.810547 z m 6.609375,4.0078122 q -0.949219,0.3164063 -3.00586,0.7558594 -2.05664,0.4394532 -2.689453,0.8613282 -0.966797,0.6855468 -0.966797,1.7402343 0,1.0371094 0.773438,1.7929688 0.773437,0.7558593 1.96875,0.7558593 1.335937,0 2.548828,-0.8789062 0.896484,-0.6679687 1.177734,-1.6347656 0.19336,-0.6328125 0.19336,-2.4082031 z m -5.34375,-11.9882812 2.425781,-5.255859 h 5.537109 l -4.833984,5.255859 z"
       style="font-weight:700;font-size:36px;font-family:Arial-BoldMT, Arial"
       id="path21" />
    <path
       d="m 97.136719,-18.667969 v 3.9375 h -3.375 v 7.5234378 q 0,2.2851562 0.08789,2.671875 0.105469,0.3691406 0.439453,0.6152343 0.351563,0.2460938 0.84375,0.2460938 0.685547,0 1.986329,-0.4746094 l 0.421875,3.83203125 Q 95.818359,0.421875 93.638672,0.421875 q -1.335938,0 -2.408203,-0.43945313 -1.072266,-0.45703125 -1.582032,-1.16015627 -0.492187,-0.7207031 -0.685546,-1.9335937 -0.158204,-0.8613282 -0.158204,-3.4804688 v -8.1386721 h -2.267578 v -3.9375 h 2.267578 v -3.708984 l 4.957032,-2.882813 v 6.591797 z"
       style="font-weight:700;font-size:36px;font-family:Arial-BoldMT, Arial"
       id="path23" />
  </g>
</svg>
