<?xml version="1.0" encoding="UTF-8" standalone="no"?>
<svg
   xmlns:dc="http://purl.org/dc/elements/1.1/"
   xmlns:cc="http://creativecommons.org/ns#"
   xmlns:rdf="http://www.w3.org/1999/02/22-rdf-syntax-ns#"
   xmlns:svg="http://www.w3.org/2000/svg"
   xmlns="http://www.w3.org/2000/svg"
   xmlns:sodipodi="http://sodipodi.sourceforge.net/DTD/sodipodi-0.dtd"
   xmlns:inkscape="http://www.inkscape.org/namespaces/inkscape"
   id="Layer_1"
   data-name="Layer 1"
   viewBox="0 0 163.93 44.44"
   version="1.1"
   sodipodi:docname="info.svg">
  <metadata
     id="metadata13">
    <rdf:RDF>
      <cc:Work
         rdf:about="">
        <dc:format>image/svg+xml</dc:format>
        <dc:type
           rdf:resource="http://purl.org/dc/dcmitype/StillImage" />
      </cc:Work>
    </rdf:RDF>
  </metadata>
  <sodipodi:namedview
     pagecolor="#ffffff"
     bordercolor="#666666"
     borderopacity="1"
     objecttolerance="10"
     gridtolerance="10"
     guidetolerance="10"
     inkscape:pageopacity="0"
     inkscape:pageshadow="2"
     inkscape:window-width="640"
     inkscape:window-height="480"
     id="namedview11" />
  <defs
     id="defs4">
    <style
       id="style2">.cls-1{font-size:36px;font-family:Arial-BoldMT, Arial;font-weight:700;}</style>
  </defs>
  <title
     id="title6">info</title>
  <g
     aria-label="Thông tin"
     transform="translate(0,30.88)"
     id="text8"
     style="font-weight:700;font-size:36px;font-family:Arial-BoldMT, Arial"
     class="cls-1">
    <path
       d="M 8.4199219,0 V -21.410156 H 0.7734375 v -4.359375 H 21.251953 v 4.359375 H 13.623047 V 0 Z"
       style="font-weight:700;font-size:36px;font-family:Arial-BoldMT, Arial"
       id="path15" />
    <path
       d="m 29.496094,-25.769531 v 9.474609 q 2.390625,-2.794922 5.71289,-2.794922 1.705078,0 3.076172,0.632813 1.371094,0.632812 2.056641,1.617187 0.703125,0.984375 0.949219,2.179688 0.263671,1.195312 0.263671,3.708984 V 0 h -4.939453 v -9.8613281 q 0,-2.9355469 -0.28125,-3.7265629 -0.28125,-0.791015 -1.001953,-1.248047 -0.703125,-0.474609 -1.77539,-0.474609 -1.230469,0 -2.197266,0.597656 -0.966797,0.597657 -1.423828,1.810547 -0.439453,1.195313 -0.439453,3.5507815 V 0 h -4.939453 v -25.769531 z"
       style="font-weight:700;font-size:36px;font-family:Arial-BoldMT, Arial"
       id="path17" />
    <path
       d="m 45.421875,-9.5976563 q 0,-2.4609377 1.212891,-4.7636717 1.21289,-2.302734 3.427734,-3.515625 2.232422,-1.212891 4.974609,-1.212891 4.236328,0 6.94336,2.759766 2.707031,2.742187 2.707031,6.9433592 0,4.2363282 -2.742188,7.03125 -2.724609,2.7773438 -6.873046,2.7773438 -2.566407,0 -4.904297,-1.16015625 -2.320313,-1.16015625 -3.533203,-3.39257815 -1.212891,-2.25 -1.212891,-5.4667969 z m 5.0625,0.2636719 q 0,2.7773438 1.318359,4.2539063 1.31836,1.4765625 3.251953,1.4765625 1.933594,0 3.234375,-1.4765625 1.31836,-1.4765625 1.31836,-4.2890625 0,-2.7421874 -1.31836,-4.2187504 -1.300781,-1.476562 -3.234375,-1.476562 -1.933593,0 -3.251953,1.476562 -1.318359,1.476563 -1.318359,4.2539066 z m -1.388672,-11.6894526 3.691406,-5.185547 h 4.570313 l 3.638672,5.185547 h -3.972657 l -2.039062,-2.619141 -1.898438,2.619141 z"
       style="font-weight:700;font-size:36px;font-family:Arial-BoldMT, Arial"
       id="path19" />
    <path
       d="m 85.535156,0 h -4.939453 v -9.5273438 q 0,-3.0234372 -0.316406,-3.9023442 -0.316406,-0.896484 -1.03711,-1.388671 -0.703125,-0.492188 -1.705078,-0.492188 -1.283203,0 -2.302734,0.703125 -1.019531,0.703125 -1.40625,1.863281 -0.369141,1.160157 -0.369141,4.2890629 V 0 h -4.939453 v -18.667969 h 4.587891 v 2.742188 q 2.443359,-3.164063 6.152344,-3.164063 1.634765,0 2.988281,0.597657 1.353515,0.580078 2.039062,1.49414 0.703125,0.914063 0.966797,2.074219 0.28125,1.160156 0.28125,3.322265 z"
       style="font-weight:700;font-size:36px;font-family:Arial-BoldMT, Arial"
       id="path21" />
    <path
       d="m 90.087891,1.2304687 5.642578,0.6855469 q 0.140625,0.984375 0.65039,1.3535157 0.703125,0.5273437 2.214844,0.5273437 1.933597,0 2.900387,-0.5800781 0.65039,-0.3867188 0.98438,-1.2480469 0.22851,-0.6152344 0.22851,-2.26757813 V -3.0234375 Q 100.49414,0 97.119141,0 93.357422,0 91.160156,-3.1816406 89.4375,-5.6953125 89.4375,-9.4394531 q 0,-4.6933599 2.25,-7.1718749 2.267578,-2.478516 5.625,-2.478516 3.46289,0 5.71289,3.041016 v -2.619141 h 4.62305 v 16.7519534 q 0,3.3046875 -0.54492,4.9394531 -0.54493,1.6347656 -1.5293,2.5664062 -0.98438,0.9316407 -2.63672,1.4589844 -1.63477,0.5273438 -4.148438,0.5273438 -4.746093,0 -6.732421,-1.6347657 -1.986329,-1.6171875 -1.986329,-4.1132812 0,-0.2460938 0.01758,-0.5976563 z M 94.5,-9.7207031 q 0,2.9707031 1.142578,4.359375 1.160156,1.3710937 2.847656,1.3710937 1.810546,0 3.058596,-1.40625 1.24805,-1.4238281 1.24805,-4.2011719 0,-2.9003907 -1.19532,-4.3066407 -1.19531,-1.40625 -3.023435,-1.40625 -1.775391,0 -2.935547,1.388672 Q 94.5,-12.550781 94.5,-9.7207031 Z"
       style="font-weight:700;font-size:36px;font-family:Arial-BoldMT, Arial"
       id="path23" />
    <path
       d="m 131.09766,-18.667969 v 3.9375 h -3.375 v 7.5234378 q 0,2.2851562 0.0879,2.671875 0.10547,0.3691406 0.43945,0.6152343 0.35156,0.2460938 0.84375,0.2460938 0.68555,0 1.98633,-0.4746094 l 0.42187,3.83203125 Q 129.7793,0.421875 127.59961,0.421875 q -1.33594,0 -2.4082,-0.43945313 -1.07227,-0.45703125 -1.58203,-1.16015627 -0.49219,-0.7207031 -0.68555,-1.9335937 -0.1582,-0.8613282 -0.1582,-3.4804688 v -8.1386721 h -2.26758 v -3.9375 h 2.26758 v -3.708984 l 4.95703,-2.882813 v 6.591797 z"
       style="font-weight:700;font-size:36px;font-family:Arial-BoldMT, Arial"
       id="path25" />
    <path
       d="m 134.52539,-21.199219 v -4.570312 h 4.93945 v 4.570312 z m 0,21.199219 v -18.667969 h 4.93945 V 0 Z"
       style="font-weight:700;font-size:36px;font-family:Arial-BoldMT, Arial"
       id="path27" />
    <path
       d="m 161.50781,0 h -4.93945 v -9.5273438 q 0,-3.0234372 -0.31641,-3.9023442 -0.3164,-0.896484 -1.03711,-1.388671 -0.70312,-0.492188 -1.70507,-0.492188 -1.28321,0 -2.30274,0.703125 -1.01953,0.703125 -1.40625,1.863281 -0.36914,1.160157 -0.36914,4.2890629 V 0 h -4.93945 v -18.667969 h 4.58789 v 2.742188 q 2.44336,-3.164063 6.15234,-3.164063 1.63477,0 2.98828,0.597657 1.35352,0.580078 2.03907,1.49414 0.70312,0.914063 0.96679,2.074219 0.28125,1.160156 0.28125,3.322265 z"
       style="font-weight:700;font-size:36px;font-family:Arial-BoldMT, Arial"
       id="path29" />
  </g>
</svg>
