<?xml version="1.0" encoding="UTF-8" standalone="no"?>
<svg
   xmlns:dc="http://purl.org/dc/elements/1.1/"
   xmlns:cc="http://creativecommons.org/ns#"
   xmlns:rdf="http://www.w3.org/1999/02/22-rdf-syntax-ns#"
   xmlns:svg="http://www.w3.org/2000/svg"
   xmlns="http://www.w3.org/2000/svg"
   xmlns:sodipodi="http://sodipodi.sourceforge.net/DTD/sodipodi-0.dtd"
   xmlns:inkscape="http://www.inkscape.org/namespaces/inkscape"
   id="Layer_1"
   data-name="Layer 1"
   viewBox="0 0 135.65 42.58"
   version="1.1"
   sodipodi:docname="new_game.svg">
  <metadata
     id="metadata13">
    <rdf:RDF>
      <cc:Work
         rdf:about="">
        <dc:format>image/svg+xml</dc:format>
        <dc:type
           rdf:resource="http://purl.org/dc/dcmitype/StillImage" />
      </cc:Work>
    </rdf:RDF>
  </metadata>
  <sodipodi:namedview
     pagecolor="#ffffff"
     bordercolor="#666666"
     borderopacity="1"
     objecttolerance="10"
     gridtolerance="10"
     guidetolerance="10"
     inkscape:pageopacity="0"
     inkscape:pageshadow="2"
     inkscape:window-width="640"
     inkscape:window-height="480"
     id="namedview11" />
  <defs
     id="defs4">
    <style
       id="style2">.cls-1{font-size:36px;font-family:ArialMT, Arial;}</style>
  </defs>
  <title
     id="title6">new_game</title>
  <g
     aria-label="Ván mới"
     transform="translate(0,30.89)"
     id="text8"
     style="font-size:36px;font-family:ArialMT, Arial"
     class="cls-1">
    <path
       d="M 10.142578,0 0.15820312,-25.769531 H 3.8496094 l 6.6972656,18.7207029 q 0.808594,2.25 1.353516,4.21875 0.597656,-2.109375 1.388672,-4.21875 L 20.25,-25.769531 h 3.480469 L 13.640625,0 Z"
       style="font-size:36px;font-family:ArialMT, Arial"
       id="path15" />
    <path
       d="m 38.566406,-2.3027344 q -1.757812,1.49414065 -3.392578,2.10937503 -1.617187,0.61523437 -3.480469,0.61523437 -3.076172,0 -4.728515,-1.4941406 Q 25.3125,-2.5839844 25.3125,-4.921875 q 0,-1.3710937 0.615234,-2.4960937 0.632813,-1.1425782 1.634766,-1.8281251 1.019531,-0.6855468 2.285156,-1.0371092 0.931641,-0.246094 2.8125,-0.47461 3.832031,-0.457031 5.642578,-1.089843 0.01758,-0.650391 0.01758,-0.826172 0,-1.933594 -0.896484,-2.72461 -1.212891,-1.072265 -3.603516,-1.072265 -2.232421,0 -3.304687,0.791015 -1.054688,0.773438 -1.564453,2.759766 l -3.09375,-0.421875 q 0.421875,-1.986328 1.388672,-3.199219 0.966797,-1.230468 2.794922,-1.880859 1.828125,-0.667969 4.236328,-0.667969 2.390625,0 3.884765,0.5625 1.494141,0.5625 2.197266,1.423828 0.703125,0.84375 0.984375,2.144532 0.158203,0.808593 0.158203,2.917968 v 4.2187504 q 0,4.4121093 0.193359,5.5898437 Q 41.90625,-1.0722656 42.503906,0 h -3.304687 q -0.492188,-0.984375 -0.632813,-2.3027344 z m -0.263672,-7.0664062 q -1.722656,0.703125 -5.167968,1.1953125 -1.951172,0.28125 -2.759766,0.6328125 -0.808594,0.3515625 -1.248047,1.0371094 -0.439453,0.6679687 -0.439453,1.4941406 0,1.265625 0.949219,2.109375 0.966797,0.84375 2.8125,0.84375 1.828125,0 3.251953,-0.7910157 1.423828,-0.8085937 2.091797,-2.1972656 0.509765,-1.0722656 0.509765,-3.1640625 z m -6.152343,-11.6191404 2.33789,-4.921875 h 4.148438 l -3.867188,4.921875 z"
       style="font-size:36px;font-family:ArialMT, Arial"
       id="path17" />
    <path
       d="m 46.40625,0 v -18.667969 h 2.847656 v 2.654297 q 2.056641,-3.076172 5.941406,-3.076172 1.6875,0 3.09375,0.615235 1.423829,0.597656 2.126954,1.582031 0.703125,0.984375 0.984375,2.33789 0.175781,0.878907 0.175781,3.076172 V 0 h -3.164063 v -11.355469 q 0,-1.933594 -0.36914,-2.882812 -0.369141,-0.966797 -1.31836,-1.529297 -0.93164,-0.580078 -2.197265,-0.580078 -2.021485,0 -3.498047,1.283203 -1.458985,1.283203 -1.458985,4.86914 V 0 Z"
       style="font-size:36px;font-family:ArialMT, Arial"
       id="path19" />
    <path
       d="m 76.429687,0 v -18.667969 h 2.830079 v 2.619141 q 0.878906,-1.371094 2.33789,-2.197266 1.458985,-0.84375 3.322266,-0.84375 2.074219,0 3.392578,0.861328 1.335937,0.861329 1.880859,2.408203 2.214844,-3.269531 5.765625,-3.269531 2.777344,0 4.271486,1.546875 1.49414,1.529297 1.49414,4.728516 V 0 h -3.146485 v -11.759766 q 0,-1.898437 -0.316406,-2.724609 -0.298828,-0.84375 -1.107422,-1.353516 -0.808594,-0.509765 -1.898438,-0.509765 -1.96875,0 -3.269531,1.318359 -1.300781,1.300781 -1.300781,4.183594 V 0 h -3.164063 v -12.128906 q 0,-2.109375 -0.773437,-3.164063 -0.773438,-1.054687 -2.53125,-1.054687 -1.335938,0 -2.478516,0.703125 -1.125,0.703125 -1.634765,2.05664 -0.509766,1.353516 -0.509766,3.9023441 V 0 Z"
       style="font-size:36px;font-family:ArialMT, Arial"
       id="path21" />
    <path
       d="m 108.49219,-9.3339844 q 0,3.4628907 1.56445,5.3613281 1.47656,1.7929688 3.9375,1.7929688 2.46094,0 3.91992,-1.7929688 1.56446,-1.9160156 1.56446,-5.4667968 0,-3.3574219 -1.58204,-5.2382809 -1.47656,-1.792969 -3.90234,-1.792969 -2.47851,0 -3.9375,1.77539 -1.56445,1.898438 -1.56445,5.3613286 z m 14.66015,-6.1171876 V -19.125 h 3.39258 v 2.900391 q 0,2.179687 -0.66797,3.339843 -0.86132,1.511719 -3.14648,2.777344 0,0.2460939 0,0.5097657 0,6.5390625 -4.21875,8.87695318 -2.07422,1.14257812 -4.51758,1.14257812 -4.00781,0 -6.3457,-2.5136719 -2.40821,-2.6015625 -2.40821,-7.2421875 0,-5.1855466 2.88282,-7.6816406 2.4082,-2.074219 5.87109,-2.074219 3.84961,0 6.29297,2.513672 1.8457,1.916016 2.30273,4.939453 1.19532,-0.738281 1.70508,-1.529297 0.52735,-0.791015 0.50977,-2.285156 z m -10.91601,-5.537109 2.33789,-4.921875 h 4.14844 l -3.86719,4.921875 z"
       style="font-size:36px;font-family:ArialMT, Arial"
       id="path23" />
    <path
       d="m 130.04297,-22.130859 v -3.638672 h 3.16406 v 3.638672 z m 0,22.130859 v -18.667969 h 3.16406 V 0 Z"
       style="font-size:36px;font-family:ArialMT, Arial"
       id="path25" />
  </g>
</svg>
