<svg width="22" height="24" viewBox="0 0 22 24" fill="none" xmlns="http://www.w3.org/2000/svg">
<path d="M21.7875 21.4734L18.6724 18.1898C18.679 18.1252 18.6999 18.0652 18.6999 17.9995C18.7017 17.6456 18.6102 17.2837 18.404 16.9819C17.7399 16.0087 16.4972 14.5448 16.4972 9.74953C16.4972 6.10734 14.6244 3.19172 12.0993 2.47641V1.5C12.0993 0.671719 11.607 0 11 0C10.3929 0 9.90064 0.671719 9.90064 1.5V2.47688C8.5143 2.86969 7.33421 3.93328 6.54599 5.40984L1.563 0.157969C1.32306 -0.0960938 0.977249 -0.0375 0.790937 0.289687L0.115813 1.47422C-0.0704991 1.80094 -0.0275304 2.27203 0.212407 2.52656L20.4369 23.842C20.6768 24.0966 21.0223 24.0375 21.209 23.7103L21.8841 22.5258C22.0704 22.1991 22.0274 21.728 21.7875 21.4734ZM5.40474 11.7909C5.10877 14.9766 4.15315 16.1658 3.59593 16.9823C3.38968 17.2847 3.29825 17.6461 3.29997 18C3.30375 18.7687 3.74615 19.5 4.4034 19.5H12.7194L5.40474 11.7909ZM11 24C12.2141 24 13.1989 22.657 13.1989 21H8.80099C8.80099 22.657 9.78583 24 11 24Z" fill="black"/>
</svg>