<?xml version="1.0" encoding="UTF-8" standalone="no"?>
<svg
   xmlns:dc="http://purl.org/dc/elements/1.1/"
   xmlns:cc="http://creativecommons.org/ns#"
   xmlns:rdf="http://www.w3.org/1999/02/22-rdf-syntax-ns#"
   xmlns:svg="http://www.w3.org/2000/svg"
   xmlns="http://www.w3.org/2000/svg"
   xmlns:sodipodi="http://sodipodi.sourceforge.net/DTD/sodipodi-0.dtd"
   xmlns:inkscape="http://www.inkscape.org/namespaces/inkscape"
   id="Layer_1"
   data-name="Layer 1"
   viewBox="0 0 133.61 44.44"
   version="1.1"
   sodipodi:docname="play_again.svg">
  <metadata
     id="metadata13">
    <rdf:RDF>
      <cc:Work
         rdf:about="">
        <dc:format>image/svg+xml</dc:format>
        <dc:type
           rdf:resource="http://purl.org/dc/dcmitype/StillImage" />
      </cc:Work>
    </rdf:RDF>
  </metadata>
  <sodipodi:namedview
     pagecolor="#ffffff"
     bordercolor="#666666"
     borderopacity="1"
     objecttolerance="10"
     gridtolerance="10"
     guidetolerance="10"
     inkscape:pageopacity="0"
     inkscape:pageshadow="2"
     inkscape:window-width="640"
     inkscape:window-height="480"
     id="namedview11" />
  <defs
     id="defs4">
    <style
       id="style2">.cls-1{font-size:36px;font-family:Arial-BoldMT, Arial;font-weight:700;}</style>
  </defs>
  <title
     id="title6">play_again</title>
  <g
     aria-label="Chơi lại"
     transform="translate(0,30.88)"
     id="text8"
     style="font-weight:700;font-size:36px;font-family:Arial-BoldMT, Arial"
     class="cls-1">
    <path
       d="M 19.107422,-9.4746094 24.152344,-7.875 q -1.160157,4.21875 -3.867188,6.2753906 -2.689453,2.03906253 -6.83789,2.03906253 -5.1328129,0 -8.4375004,-3.49804693 -3.3046875,-3.5156249 -3.3046875,-9.5976562 0,-6.433594 3.3222656,-9.984375 3.3222657,-3.568359 8.7363283,-3.568359 4.728515,0 7.68164,2.794922 1.757813,1.652343 2.636719,4.746093 l -5.15039,1.230469 q -0.457032,-2.003906 -1.916016,-3.164062 -1.441406,-1.160157 -3.515625,-1.160157 -2.865234,0 -4.6582031,2.056641 -1.7753907,2.056641 -1.7753907,6.662109 0,4.886719 1.7578126,6.9609378 1.7578122,2.0742187 4.5703122,2.0742187 2.074219,0 3.56836,-1.3183594 1.49414,-1.3183593 2.144531,-4.1484375 z"
       style="font-weight:700;font-size:36px;font-family:Arial-BoldMT, Arial"
       id="path15" />
    <path
       d="m 33.503906,-25.769531 v 9.474609 q 2.390625,-2.794922 5.712891,-2.794922 1.705078,0 3.076172,0.632813 1.371093,0.632812 2.05664,1.617187 0.703125,0.984375 0.949219,2.179688 0.263672,1.195312 0.263672,3.708984 V 0 h -4.939453 v -9.8613281 q 0,-2.9355469 -0.28125,-3.7265629 -0.28125,-0.791015 -1.001953,-1.248047 -0.703125,-0.474609 -1.775391,-0.474609 -1.230469,0 -2.197266,0.597656 -0.966796,0.597657 -1.423828,1.810547 -0.439453,1.195313 -0.439453,3.5507815 V 0 h -4.939453 v -25.769531 z"
       style="font-weight:700;font-size:36px;font-family:Arial-BoldMT, Arial"
       id="path17" />
    <path
       d="m 54.492187,-9.3339844 q 0,2.6894532 1.31836,4.2539063 1.248047,1.4765625 3.251953,1.4765625 2.003906,0 3.234375,-1.4765625 1.318359,-1.5644531 1.318359,-4.2890625 0,-2.6718754 -1.318359,-4.2187504 -1.230469,-1.476562 -3.234375,-1.476562 -2.003906,0 -3.251953,1.476562 -1.31836,1.564453 -1.31836,4.2539066 z m 14.150391,-9.3339846 h 4.939453 v 3.533203 q 0,2.179688 -0.386719,3.410157 -0.36914,1.230468 -1.388671,2.1972652 -1.177735,1.1425782 -3.216797,1.7929688 -0.439453,3.1464844 -2.619141,5.3613281 -2.742187,2.7949219 -6.890625,2.7949219 -2.654297,0 -4.886719,-1.16015625 Q 51.820312,-1.96875 50.625,-4.1660156 q -1.195313,-2.2148438 -1.195313,-5.4316407 0,-2.5312497 1.212891,-4.7636717 1.265625,-2.337891 3.462891,-3.533203 2.197265,-1.195313 4.939453,-1.195313 4.236328,0 6.943359,2.742188 2.44336,2.496093 2.689453,6.169922 2.285157,-0.931641 2.355469,-3.550782 h -2.390625 z"
       style="font-weight:700;font-size:36px;font-family:Arial-BoldMT, Arial"
       id="path19" />
    <path
       d="m 76.166016,-21.199219 v -4.570312 h 4.939453 v 4.570312 z m 0,21.199219 v -18.667969 h 4.939453 V 0 Z"
       style="font-weight:700;font-size:36px;font-family:Arial-BoldMT, Arial"
       id="path21" />
    <path
       d="m 96.169922,0 v -25.769531 h 4.939458 V 0 Z"
       style="font-weight:700;font-size:36px;font-family:Arial-BoldMT, Arial"
       id="path23" />
    <path
       d="m 109.86328,-12.972656 -4.48242,-0.808594 q 0.75586,-2.707031 2.60156,-4.007812 1.84571,-1.300782 5.48438,-1.300782 3.30468,0 4.92187,0.791016 1.61719,0.773437 2.26758,1.986328 0.66797,1.195312 0.66797,4.412109 l -0.0527,5.7656254 q 0,2.4609375 0.22852,3.6386718 Q 121.74609,-1.3359375 122.39648,0 h -4.88671 q -0.19336,-0.4921875 -0.47461,-1.4589844 -0.12305,-0.4394531 -0.17578,-0.5800781 -1.26563,1.23046875 -2.70704,1.84570313 -1.4414,0.61523437 -3.07617,0.61523437 -2.88281,0 -4.55273,-1.5644531 -1.65235,-1.5644532 -1.65235,-3.9550781 0,-1.5820313 0.75586,-2.8125 0.75586,-1.2480469 2.10938,-1.8984376 1.37109,-0.6679692 3.9375,-1.1601562 3.46289,-0.650391 4.79883,-1.212891 v -0.492187 q 0,-1.423828 -0.70313,-2.021485 -0.70312,-0.615234 -2.6543,-0.615234 -1.31835,0 -2.05664,0.527344 -0.73828,0.509765 -1.19531,1.810547 z m 6.60938,4.0078122 q -0.94922,0.3164063 -3.00586,0.7558594 -2.05664,0.4394532 -2.68946,0.8613282 -0.96679,0.6855468 -0.96679,1.7402343 0,1.0371094 0.77343,1.7929688 0.77344,0.7558593 1.96875,0.7558593 1.33594,0 2.54883,-0.8789062 0.89649,-0.6679687 1.17774,-1.6347656 0.19336,-0.6328125 0.19336,-2.4082031 z M 110.4082,7.0488281 V 2.109375 h 4.93946 v 4.9394531 z"
       style="font-weight:700;font-size:36px;font-family:Arial-BoldMT, Arial"
       id="path25" />
    <path
       d="m 126.19336,-21.199219 v -4.570312 h 4.93945 v 4.570312 z m 0,21.199219 v -18.667969 h 4.93945 V 0 Z"
       style="font-weight:700;font-size:36px;font-family:Arial-BoldMT, Arial"
       id="path27" />
  </g>
</svg>
