<?xml version="1.0" encoding="UTF-8" standalone="no"?>
<svg
   xmlns:dc="http://purl.org/dc/elements/1.1/"
   xmlns:cc="http://creativecommons.org/ns#"
   xmlns:rdf="http://www.w3.org/1999/02/22-rdf-syntax-ns#"
   xmlns:svg="http://www.w3.org/2000/svg"
   xmlns="http://www.w3.org/2000/svg"
   xmlns:sodipodi="http://sodipodi.sourceforge.net/DTD/sodipodi-0.dtd"
   xmlns:inkscape="http://www.inkscape.org/namespaces/inkscape"
   id="Layer_1"
   data-name="Layer 1"
   viewBox="0 0 163.6 44.44"
   version="1.1"
   sodipodi:docname="rule.svg">
  <metadata
     id="metadata13">
    <rdf:RDF>
      <cc:Work
         rdf:about="">
        <dc:format>image/svg+xml</dc:format>
        <dc:type
           rdf:resource="http://purl.org/dc/dcmitype/StillImage" />
      </cc:Work>
    </rdf:RDF>
  </metadata>
  <sodipodi:namedview
     pagecolor="#ffffff"
     bordercolor="#666666"
     borderopacity="1"
     objecttolerance="10"
     gridtolerance="10"
     guidetolerance="10"
     inkscape:pageopacity="0"
     inkscape:pageshadow="2"
     inkscape:window-width="640"
     inkscape:window-height="480"
     id="namedview11" />
  <defs
     id="defs4">
    <style
       id="style2">.cls-1{font-size:36px;font-family:Arial-BoldMT, Arial;font-weight:700;}</style>
  </defs>
  <title
     id="title6">rule</title>
  <g
     aria-label="Luật chơi"
     transform="translate(0,30.88)"
     id="text8"
     style="font-weight:700;font-size:36px;font-family:Arial-BoldMT, Arial"
     class="cls-1">
    <path
       d="m 2.7597656,0 v -25.558594 h 5.203125 V -4.3417969 H 20.900391 V 0 Z"
       style="font-weight:700;font-size:36px;font-family:Arial-BoldMT, Arial"
       id="path15" />
    <path
       d="m 36.861328,0 v -2.7949219 q -1.019531,1.4941407 -2.689453,2.35546877 -1.652344,0.86132813 -3.498047,0.86132813 -1.880859,0 -3.375,-0.82617188 Q 25.804687,-1.2304687 25.136719,-2.7246094 24.46875,-4.21875 24.46875,-6.8554687 V -18.667969 h 4.939453 v 8.578125 q 0,3.9375003 0.263672,4.8339846 0.28125,0.8789063 1.001953,1.40625 0.720703,0.5097656 1.828125,0.5097656 1.265625,0 2.267578,-0.6855468 1.001953,-0.703125 1.371094,-1.7226563 0.369141,-1.0371093 0.369141,-5.0449221 v -7.875 h 4.939453 V 0 Z"
       style="font-weight:700;font-size:36px;font-family:Arial-BoldMT, Arial"
       id="path17" />
    <path
       d="m 50.255859,-12.972656 -4.482422,-0.808594 q 0.75586,-2.707031 2.601563,-4.007812 1.845703,-1.300782 5.484375,-1.300782 3.304687,0 4.921875,0.791016 1.617187,0.773437 2.267578,1.986328 0.667969,1.195312 0.667969,4.412109 l -0.05273,5.7656254 q 0,2.4609375 0.228516,3.6386718 Q 62.138672,-1.3359375 62.789062,0 h -4.886718 q -0.19336,-0.4921875 -0.47461,-1.4589844 -0.123047,-0.4394531 -0.175781,-0.5800781 -1.265625,1.23046875 -2.707031,1.84570313 Q 53.103516,0.421875 51.46875,0.421875 q -2.882813,0 -4.552734,-1.5644531 -1.652344,-1.5644532 -1.652344,-3.9550781 0,-1.5820313 0.755859,-2.8125 0.75586,-1.2480469 2.109375,-1.8984376 1.371094,-0.6679692 3.9375,-1.1601562 3.462891,-0.650391 4.798828,-1.212891 v -0.492187 q 0,-1.423828 -0.703125,-2.021485 -0.703125,-0.615234 -2.654297,-0.615234 -1.318359,0 -2.05664,0.527344 -0.738281,0.509765 -1.195313,1.810547 z m 6.609375,4.0078122 q -0.949218,0.3164063 -3.005859,0.7558594 -2.056641,0.4394532 -2.689453,0.8613282 -0.966797,0.6855468 -0.966797,1.7402343 0,1.0371094 0.773437,1.7929688 0.773438,0.7558593 1.96875,0.7558593 1.335938,0 2.548829,-0.8789062 0.896484,-0.6679687 1.177734,-1.6347656 0.193359,-0.6328125 0.193359,-2.4082031 z m -8.789062,-12.0585932 3.691406,-5.185547 h 4.570313 l 3.638671,5.185547 h -3.972656 l -2.039062,-2.619141 -1.898438,2.619141 z M 50.800781,7.0488281 V 2.109375 h 4.939453 v 4.9394531 z"
       style="font-weight:700;font-size:36px;font-family:Arial-BoldMT, Arial"
       id="path19" />
    <path
       d="m 75.146484,-18.667969 v 3.9375 h -3.375 v 7.5234378 q 0,2.2851562 0.08789,2.671875 0.105469,0.3691406 0.439453,0.6152343 0.351563,0.2460938 0.84375,0.2460938 0.685547,0 1.986328,-0.4746094 l 0.421875,3.83203125 Q 73.828125,0.421875 71.648437,0.421875 q -1.335937,0 -2.408203,-0.43945313 -1.072265,-0.45703125 -1.582031,-1.16015627 -0.492187,-0.7207031 -0.685547,-1.9335937 -0.158203,-0.8613282 -0.158203,-3.4804688 v -8.1386721 h -2.267578 v -3.9375 h 2.267578 v -3.708984 l 4.957031,-2.882813 v 6.591797 z"
       style="font-weight:700;font-size:36px;font-family:Arial-BoldMT, Arial"
       id="path21" />
    <path
       d="m 104.85352,-13.148438 -4.869145,0.878907 q -0.246094,-1.458985 -1.125,-2.197266 -0.861328,-0.738281 -2.25,-0.738281 -1.845703,0 -2.953125,1.283203 -1.089844,1.265625 -1.089844,4.2539062 0,3.3222657 1.107422,4.6933594 1.125,1.3710938 3.005859,1.3710938 1.40625,0 2.302735,-0.7910156 0.896484,-0.8085938 1.265628,-2.7597657 l 4.85156,0.8261719 q -0.75586,3.3398437 -2.90039,5.0449219 -2.14453,1.7050781 -5.748048,1.7050781 -4.095703,0 -6.539063,-2.5839844 -2.425781,-2.5839843 -2.425781,-7.1542969 0,-4.6230467 2.443359,-7.1894527 2.44336,-2.583985 6.609375,-2.583985 3.410157,0 5.414068,1.476563 2.02148,1.458984 2.90039,4.464843 z"
       style="font-weight:700;font-size:36px;font-family:Arial-BoldMT, Arial"
       id="path23" />
    <path
       d="m 113.51953,-25.769531 v 9.474609 q 2.39063,-2.794922 5.71289,-2.794922 1.70508,0 3.07617,0.632813 1.3711,0.632812 2.05664,1.617187 0.70313,0.984375 0.94922,2.179688 0.26368,1.195312 0.26368,3.708984 V 0 h -4.93946 v -9.8613281 q 0,-2.9355469 -0.28125,-3.7265629 -0.28125,-0.791015 -1.00195,-1.248047 -0.70313,-0.474609 -1.77539,-0.474609 -1.23047,0 -2.19727,0.597656 -0.96679,0.597657 -1.42383,1.810547 -0.43945,1.195313 -0.43945,3.5507815 V 0 h -4.93945 v -25.769531 z"
       style="font-weight:700;font-size:36px;font-family:Arial-BoldMT, Arial"
       id="path25" />
    <path
       d="m 134.50781,-9.3339844 q 0,2.6894532 1.31836,4.2539063 1.24805,1.4765625 3.25195,1.4765625 2.00391,0 3.23438,-1.4765625 1.31836,-1.5644531 1.31836,-4.2890625 0,-2.6718754 -1.31836,-4.2187504 -1.23047,-1.476562 -3.23438,-1.476562 -2.0039,0 -3.25195,1.476562 -1.31836,1.564453 -1.31836,4.2539066 z m 14.15039,-9.3339846 h 4.93946 v 3.533203 q 0,2.179688 -0.38672,3.410157 -0.36914,1.230468 -1.38867,2.1972652 -1.17774,1.1425782 -3.2168,1.7929688 -0.43945,3.1464844 -2.61914,5.3613281 -2.74219,2.7949219 -6.89063,2.7949219 -2.65429,0 -4.88672,-1.16015625 -2.37304,-1.23046875 -3.56836,-3.42773435 -1.19531,-2.2148438 -1.19531,-5.4316407 0,-2.5312497 1.21289,-4.7636717 1.26563,-2.337891 3.46289,-3.533203 2.19727,-1.195313 4.93946,-1.195313 4.23632,0 6.94336,2.742188 2.44336,2.496093 2.68945,6.169922 2.28516,-0.931641 2.35547,-3.550782 h -2.39063 z"
       style="font-weight:700;font-size:36px;font-family:Arial-BoldMT, Arial"
       id="path27" />
    <path
       d="m 156.18164,-21.199219 v -4.570312 h 4.93945 v 4.570312 z m 0,21.199219 v -18.667969 h 4.93945 V 0 Z"
       style="font-weight:700;font-size:36px;font-family:Arial-BoldMT, Arial"
       id="path29" />
  </g>
</svg>
