<?xml version="1.0" encoding="UTF-8" standalone="no"?>
<svg
   xmlns:dc="http://purl.org/dc/elements/1.1/"
   xmlns:cc="http://creativecommons.org/ns#"
   xmlns:rdf="http://www.w3.org/1999/02/22-rdf-syntax-ns#"
   xmlns:svg="http://www.w3.org/2000/svg"
   xmlns="http://www.w3.org/2000/svg"
   xmlns:sodipodi="http://sodipodi.sourceforge.net/DTD/sodipodi-0.dtd"
   xmlns:inkscape="http://www.inkscape.org/namespaces/inkscape"
   id="Layer_1"
   data-name="Layer 1"
   viewBox="0 0 120.02 44.44"
   version="1.1"
   sodipodi:docname="setting.svg">
  <metadata
     id="metadata13">
    <rdf:RDF>
      <cc:Work
         rdf:about="">
        <dc:format>image/svg+xml</dc:format>
        <dc:type
           rdf:resource="http://purl.org/dc/dcmitype/StillImage" />
      </cc:Work>
    </rdf:RDF>
  </metadata>
  <sodipodi:namedview
     pagecolor="#ffffff"
     bordercolor="#666666"
     borderopacity="1"
     objecttolerance="10"
     gridtolerance="10"
     guidetolerance="10"
     inkscape:pageopacity="0"
     inkscape:pageshadow="2"
     inkscape:window-width="640"
     inkscape:window-height="480"
     id="namedview11" />
  <defs
     id="defs4">
    <style
       id="style2">.cls-1{font-size:36px;font-family:Arial-BoldMT, Arial;font-weight:700;}</style>
  </defs>
  <title
     id="title6">setting</title>
  <g
     aria-label="Cài đặt"
     transform="translate(0,30.88)"
     id="text8"
     style="font-weight:700;font-size:36px;font-family:Arial-BoldMT, Arial"
     class="cls-1">
    <path
       d="M 19.107422,-9.4746094 24.152344,-7.875 q -1.160157,4.21875 -3.867188,6.2753906 -2.689453,2.03906253 -6.83789,2.03906253 -5.1328129,0 -8.4375004,-3.49804693 -3.3046875,-3.5156249 -3.3046875,-9.5976562 0,-6.433594 3.3222656,-9.984375 3.3222657,-3.568359 8.7363283,-3.568359 4.728515,0 7.68164,2.794922 1.757813,1.652343 2.636719,4.746093 l -5.15039,1.230469 q -0.457032,-2.003906 -1.916016,-3.164062 -1.441406,-1.160157 -3.515625,-1.160157 -2.865234,0 -4.6582031,2.056641 -1.7753907,2.056641 -1.7753907,6.662109 0,4.886719 1.7578126,6.9609378 1.7578122,2.0742187 4.5703122,2.0742187 2.074219,0 3.56836,-1.3183594 1.49414,-1.3183593 2.144531,-4.1484375 z"
       style="font-weight:700;font-size:36px;font-family:Arial-BoldMT, Arial"
       id="path15" />
    <path
       d="m 32.273437,-12.972656 -4.482421,-0.808594 q 0.755859,-2.707031 2.601562,-4.007812 1.845703,-1.300782 5.484375,-1.300782 3.304688,0 4.921875,0.791016 1.617188,0.773437 2.267578,1.986328 0.667969,1.195312 0.667969,4.412109 l -0.05273,5.7656254 q 0,2.4609375 0.228515,3.6386718 Q 44.15625,-1.3359375 44.806641,0 h -4.886719 q -0.19336,-0.4921875 -0.47461,-1.4589844 -0.123046,-0.4394531 -0.175781,-0.5800781 -1.265625,1.23046875 -2.707031,1.84570313 -1.441406,0.61523437 -3.076172,0.61523437 -2.882812,0 -4.552734,-1.5644531 -1.652344,-1.5644532 -1.652344,-3.9550781 0,-1.5820313 0.755859,-2.8125 0.75586,-1.2480469 2.109375,-1.8984376 1.371094,-0.6679692 3.9375,-1.1601562 3.462891,-0.650391 4.798828,-1.212891 v -0.492187 q 0,-1.423828 -0.703125,-2.021485 -0.703125,-0.615234 -2.654296,-0.615234 -1.31836,0 -2.056641,0.527344 -0.738281,0.509765 -1.195313,1.810547 z m 6.609375,4.0078122 q -0.949218,0.3164063 -3.005859,0.7558594 -2.056641,0.4394532 -2.689453,0.8613282 -0.966797,0.6855468 -0.966797,1.7402343 0,1.0371094 0.773438,1.7929688 0.773437,0.7558593 1.96875,0.7558593 1.335937,0 2.548828,-0.8789062 0.896484,-0.6679687 1.177734,-1.6347656 0.193359,-0.6328125 0.193359,-2.4082031 z M 38.53125,-20.953125 h -3.111328 l -4.851563,-5.255859 h 5.53711 z"
       style="font-weight:700;font-size:36px;font-family:Arial-BoldMT, Arial"
       id="path17" />
    <path
       d="m 48.603516,-21.199219 v -4.570312 h 4.939453 v 4.570312 z m 0,21.199219 v -18.667969 h 4.939453 V 0 Z"
       style="font-weight:700;font-size:36px;font-family:Arial-BoldMT, Arial"
       id="path19" />
    <path
       d="m 80.789062,-20.654297 h -5.326171 v -3.287109 h 5.326171 v -1.828125 h 4.939454 v 1.828125 h 1.951171 v 3.287109 H 85.728516 V 0 h -4.587891 v -2.7421875 q -1.142578,1.5996094 -2.707031,2.390625 -1.546875,0.7734375 -3.128907,0.7734375 -3.216796,0 -5.519531,-2.5839844 Q 67.5,-4.7636719 67.5,-9.4042969 q 0,-4.7460941 2.232422,-7.2070311 2.232422,-2.478516 5.642578,-2.478516 3.128906,0 5.414062,2.601563 z m -8.24414,10.9160157 q 0,2.9882813 0.826172,4.3242188 1.195312,1.9335937 3.339843,1.9335937 1.705079,0 2.900391,-1.4414062 1.195313,-1.4589844 1.195313,-4.3417969 0,-3.2167971 -1.160157,-4.6230471 -1.160156,-1.423828 -2.970703,-1.423828 -1.757812,0 -2.953125,1.40625 -1.177734,1.388672 -1.177734,4.1660157 z"
       style="font-weight:700;font-size:36px;font-family:Arial-BoldMT, Arial"
       id="path21" />
    <path
       d="m 94.289062,-12.972656 -4.482421,-0.808594 q 0.755859,-2.707031 2.601562,-4.007812 1.845703,-1.300782 5.484375,-1.300782 3.304692,0 4.921872,0.791016 1.61719,0.773437 2.26758,1.986328 0.66797,1.195312 0.66797,4.412109 l -0.0527,5.7656254 q 0,2.4609375 0.22851,3.6386718 0.2461,1.1601563 0.89649,2.4960938 h -4.88672 q -0.19336,-0.4921875 -0.47461,-1.4589844 -0.12305,-0.4394531 -0.17578,-0.5800781 -1.26563,1.23046875 -2.707035,1.84570313 -1.441406,0.61523437 -3.076172,0.61523437 -2.882812,0 -4.552734,-1.5644531 -1.652344,-1.5644532 -1.652344,-3.9550781 0,-1.5820313 0.755859,-2.8125 0.75586,-1.2480469 2.109375,-1.8984376 1.371094,-0.6679692 3.9375,-1.1601562 3.462891,-0.650391 4.798831,-1.212891 v -0.492187 q 0,-1.423828 -0.70313,-2.021485 -0.703123,-0.615234 -2.654294,-0.615234 -1.31836,0 -2.056641,0.527344 -0.738281,0.509765 -1.195313,1.810547 z m 6.609378,4.0078122 q -0.949221,0.3164063 -3.005862,0.7558594 -2.056641,0.4394532 -2.689453,0.8613282 -0.966797,0.6855468 -0.966797,1.7402343 0,1.0371094 0.773438,1.7929688 0.773437,0.7558593 1.96875,0.7558593 1.335937,0 2.548828,-0.8789062 0.896486,-0.6679687 1.177736,-1.6347656 0.19336,-0.6328125 0.19336,-2.4082031 z m 0.17578,-17.2441402 h 2.4082 q -0.21094,2.390625 -1.6875,3.761718 -1.45898,1.353516 -3.796873,1.353516 -2.337891,0 -3.814453,-1.353516 -1.458985,-1.371093 -1.669922,-3.761718 h 2.408203 q 0.123047,1.248047 0.878906,1.898437 0.75586,0.632813 2.197266,0.632813 1.441406,0 2.197263,-0.632813 0.75586,-0.65039 0.87891,-1.898437 z M 94.833984,7.0488281 V 2.109375 h 4.939453 v 4.9394531 z"
       style="font-weight:700;font-size:36px;font-family:Arial-BoldMT, Arial"
       id="path23" />
    <path
       d="m 119.17969,-18.667969 v 3.9375 h -3.375 v 7.5234378 q 0,2.2851562 0.0879,2.671875 0.10547,0.3691406 0.43945,0.6152343 0.35156,0.2460938 0.84375,0.2460938 0.68555,0 1.98633,-0.4746094 l 0.42187,3.83203125 q -1.72265,0.73828125 -3.90234,0.73828125 -1.33594,0 -2.4082,-0.43945313 -1.07227,-0.45703125 -1.58203,-1.16015627 -0.49219,-0.7207031 -0.68555,-1.9335937 -0.1582,-0.8613282 -0.1582,-3.4804688 v -8.1386721 h -2.26758 v -3.9375 h 2.26758 v -3.708984 l 4.95703,-2.882813 v 6.591797 z"
       style="font-weight:700;font-size:36px;font-family:Arial-BoldMT, Arial"
       id="path25" />
  </g>
</svg>
