<?xml version="1.0" encoding="UTF-8" standalone="no"?>
<svg
   xmlns:dc="http://purl.org/dc/elements/1.1/"
   xmlns:cc="http://creativecommons.org/ns#"
   xmlns:rdf="http://www.w3.org/1999/02/22-rdf-syntax-ns#"
   xmlns:svg="http://www.w3.org/2000/svg"
   xmlns="http://www.w3.org/2000/svg"
   xmlns:sodipodi="http://sodipodi.sourceforge.net/DTD/sodipodi-0.dtd"
   xmlns:inkscape="http://www.inkscape.org/namespaces/inkscape"
   id="Layer_1"
   data-name="Layer 1"
   viewBox="0 0 190.17 67.44"
   version="1.1"
   sodipodi:docname="start.svg">
  <metadata
     id="metadata13">
    <rdf:RDF>
      <cc:Work
         rdf:about="">
        <dc:format>image/svg+xml</dc:format>
        <dc:type
           rdf:resource="http://purl.org/dc/dcmitype/StillImage" />
      </cc:Work>
    </rdf:RDF>
  </metadata>
  <sodipodi:namedview
     pagecolor="#ffffff"
     bordercolor="#666666"
     borderopacity="1"
     objecttolerance="10"
     gridtolerance="10"
     guidetolerance="10"
     inkscape:pageopacity="0"
     inkscape:pageshadow="2"
     inkscape:window-width="640"
     inkscape:window-height="480"
     id="namedview11" />
  <defs
     id="defs4">
    <style
       id="style2">.cls-1{font-size:60px;font-family:Lobster-Regular, Lobster;}</style>
  </defs>
  <title
     id="title6">start</title>
  <g
     aria-label="Bắt đầu"
     transform="translate(0,52.44)"
     id="text8"
     style="font-size:60px;font-family:Lobster-Regular, Lobster"
     class="cls-1">
    <path
       d="m 23.22,1.02 q -2.4,0 -4.2,-1.02 -1.74,-0.96 -1.74,-3.42 0,-1.56 0.78,-3.48 1.08,1.2 1.98,1.68 0.96,0.48 2.04,0.48 3,0 4.44,-3.36 1.5,-3.36 1.5,-7.44 0,-7.62 -5.7,-7.62 -1.62,0 -2.76,0.18 L 14.64,0 H 6 l 8.16,-38.16 8.88,-1.2 -2.82,13.32 h 0.36 q 2.28,0 4.26,-1.44 1.98,-1.5 3.18,-3.72 1.2,-2.28 1.2,-4.56 0,-2.76 -1.98,-4.62 -1.92,-1.86 -5.94,-1.86 -3.66,0 -7.14,1.68 -3.48,1.62 -5.7,4.92 -2.16,3.3 -2.16,7.98 0,2.22 0.42,3.12 0.42,0.84 0.42,0.96 -3.18,0 -4.8,-1.26 -1.62,-1.32 -1.62,-4.26 0,-4.08 3.06,-7.74 3.06,-3.66 8.1,-5.88 5.04,-2.28 10.62,-2.28 4.2,0 7.08,1.32 2.88,1.32 4.26,3.48 1.44,2.16 1.44,4.74 0,2.76 -1.56,5.34 -1.56,2.58 -4.44,4.2 3.6,0.66 5.34,3.36 1.74,2.64 1.74,6.3 0,3.42 -1.32,7.44 -1.26,4.02 -4.26,6.96 -2.94,2.88 -7.56,2.88 z"
       style="font-size:60px;font-family:Lobster-Regular, Lobster"
       id="path15" />
    <path
       d="m 56.39993,-41.58 3.96,-9.18 h 4.92 l -5.52,9.18 z m 0.48,6.36 q -3.96,0 -6.06,-1.86 -2.04,-1.92 -2.04,-5.52 h 4.74 q 0,2.1 1.08,3.24 1.08,1.14 3.12,1.14 2.16,0 3.84,-1.26 1.68,-1.26 1.92,-3.12 h 4.56 q -0.3,2.04 -1.92,3.72 -1.56,1.68 -4.02,2.7 -2.4,0.96 -5.22,0.96 z m -11.22,35.58 q -3.42,0 -5.7,-2.34 -2.28,-2.34 -2.28,-7.32 0,-4.44 1.74,-9.3 1.8,-4.92 5.28,-8.28 3.54,-3.42 8.4,-3.42 2.46,0 3.66,0.84 1.2,0.84 1.2,2.22 v 0.42 l 0.66,-3.18 h 8.64 l -4.32,20.4 q -0.24,0.9 -0.24,1.92 0,2.58 2.46,2.58 1.68,0 2.88,-1.56 1.26,-1.56 1.98,-4.08 h 2.52 q -2.22,6.48 -5.52,8.82 -3.24,2.28 -6.54,2.28 -2.52,0 -4.08,-1.38 -1.5,-1.44 -1.8,-4.14 -1.74,2.46 -3.9,4.02 -2.1,1.5 -5.04,1.5 z m 3.9,-5.82 q 1.5,0 2.94,-1.38 1.5,-1.44 2.04,-3.9 l 2.88,-13.56 q 0,-0.78 -0.6,-1.5 -0.6,-0.78 -1.86,-0.78 -2.4,0 -4.32,2.82 -1.92,2.76 -3,6.72 -1.08,3.9 -1.08,6.9 0,3 0.84,3.84 0.9,0.84 2.16,0.84 z"
       style="font-size:60px;font-family:Lobster-Regular, Lobster"
       id="path17" />
    <path
       d="m 75.659875,0.36 q -3.06,0 -4.56,-1.86 -1.44,-1.86 -1.44,-4.92 0,-1.56 0.36,-3.18 l 3.84,-18 h -1.98 l 0.48,-2.4 h 1.98 l 1.8,-8.28 8.88,-1.2 q -0.54,2.28 -0.6,2.7 -0.42,1.68 -1.44,6.78 h 3.6 l -0.48,2.4 h -3.6 l -3.84,18 q -0.3,1.32 -0.3,2.1 0,2.16 2.1,2.16 1.08,0 1.56,-0.18 -1.2,3.48 -2.82,4.68 -1.62,1.2 -3.54,1.2 z"
       style="font-size:60px;font-family:Lobster-Regular, Lobster"
       id="path19" />
    <path
       d="m 124.01976,-9.6 q -0.24,0.9 -0.24,1.92 0,1.2 0.54,1.74 0.6,0.48 1.92,0.48 1.68,0 2.88,-1.44 1.26,-1.44 1.98,-3.84 h 2.52 q -3.66,10.74 -12.06,10.74 -2.46,0 -4.02,-1.32 -1.5,-1.32 -1.86,-3.84 -1.56,2.4 -3.78,3.96 -2.16,1.56 -5.1,1.56 -3.42,0 -5.7,-2.34 -2.279998,-2.34 -2.279998,-7.32 0,-4.44 1.739998,-9.3 1.8,-4.92 5.28,-8.28 3.54,-3.42 8.4,-3.42 2.46,0 3.66,0.84 1.2,0.84 1.2,2.22 V -27 l 1.38,-6.54 h -5.28 l 0.78,-3 h 5.16 l 0.9,-4.26 8.88,-1.2 -1.14,5.46 h 4.8 l -0.9,3 h -4.56 z m -5.46,-14.88 q -0.54,-2.1 -2.46,-2.1 -2.4,0 -4.32,2.82 -1.92,2.76 -3,6.72 -1.08,3.9 -1.08,6.9 0,3 0.84,3.84 0.9,0.84 2.16,0.84 1.44,0 2.88,-1.32 1.5,-1.32 2.04,-3.66 v -0.3 z"
       style="font-size:60px;font-family:Lobster-Regular, Lobster"
       id="path21" />
    <path
       d="m 159.89973,-40.74 -3.12,-9.96 h 4.74 l 1.56,9.96 z m -18.12,6.36 11.22,-9.96 h 1.08 l 3.24,9.96 h -1.68 l -3.24,-4.26 -8.28,4.26 z m -3.48,34.74 q -3.42,0 -5.7,-2.34 -2.28,-2.34 -2.28,-7.32 0,-4.44 1.74,-9.3 1.8,-4.92 5.28,-8.28 3.54,-3.42 8.4,-3.42 2.46,0 3.66,0.84 1.2,0.84 1.2,2.22 v 0.42 l 0.66,-3.18 h 8.64 l -4.32,20.4 q -0.24,0.9 -0.24,1.92 0,2.58 2.46,2.58 1.68,0 2.88,-1.56 1.26,-1.56 1.98,-4.08 h 2.52 q -2.22,6.48 -5.52,8.82 -3.24,2.28 -6.54,2.28 -2.52,0 -4.08,-1.38 -1.5,-1.44 -1.8,-4.14 -1.74,2.46 -3.9,4.02 -2.1,1.5 -5.04,1.5 z m 3.9,-5.82 q 1.5,0 2.94,-1.38 1.5,-1.44 2.04,-3.9 l 2.88,-13.56 q 0,-0.78 -0.6,-1.5 -0.6,-0.78 -1.86,-0.78 -2.4,0 -4.32,2.82 -1.92,2.76 -3,6.72 -1.08,3.9 -1.08,6.9 0,3 0.84,3.84 0.9,0.84 2.16,0.84 z"
       style="font-size:60px;font-family:Lobster-Regular, Lobster"
       id="path23" />
    <path
       d="m 168.59968,0.36 q -2.88,0 -4.68,-1.8 -1.74,-1.8 -1.74,-5.4 0,-1.5 0.48,-3.9 l 4.08,-19.26 h 8.64 l -4.32,20.4 q -0.18,0.72 -0.18,1.5 0,2.64 1.8,2.64 1.68,0 2.88,-1.38 1.2,-1.44 1.92,-3.9 l 4.08,-19.26 h 8.64 l -4.32,20.4 q -0.24,0.9 -0.24,1.92 0,1.2 0.54,1.74 0.6,0.48 1.92,0.48 0.96,0 1.38,-0.12 0.48,-0.18 0.6,-0.24 -0.24,3.06 -2.1,4.62 -1.86,1.56 -4.56,1.56 -2.52,0 -4.08,-1.5 -1.5,-1.5 -1.8,-4.2 -2.04,3.3 -4.32,4.5 -2.22,1.2 -4.62,1.2 z"
       style="font-size:60px;font-family:Lobster-Regular, Lobster"
       id="path25" />
  </g>
</svg>
