<?xml version="1.0" encoding="UTF-8" standalone="no"?>
<svg
   xmlns:dc="http://purl.org/dc/elements/1.1/"
   xmlns:cc="http://creativecommons.org/ns#"
   xmlns:rdf="http://www.w3.org/1999/02/22-rdf-syntax-ns#"
   xmlns:svg="http://www.w3.org/2000/svg"
   xmlns="http://www.w3.org/2000/svg"
   xmlns:sodipodi="http://sodipodi.sourceforge.net/DTD/sodipodi-0.dtd"
   xmlns:inkscape="http://www.inkscape.org/namespaces/inkscape"
   id="Layer_1"
   data-name="Layer 1"
   viewBox="0 0 132.01 45.66"
   version="1.1"
   sodipodi:docname="start1.svg">
  <metadata
     id="metadata13">
    <rdf:RDF>
      <cc:Work
         rdf:about="">
        <dc:format>image/svg+xml</dc:format>
        <dc:type
           rdf:resource="http://purl.org/dc/dcmitype/StillImage" />
      </cc:Work>
    </rdf:RDF>
  </metadata>
  <sodipodi:namedview
     pagecolor="#ffffff"
     bordercolor="#666666"
     borderopacity="1"
     objecttolerance="10"
     gridtolerance="10"
     guidetolerance="10"
     inkscape:pageopacity="0"
     inkscape:pageshadow="2"
     inkscape:window-width="640"
     inkscape:window-height="480"
     id="namedview11" />
  <defs
     id="defs4">
    <style
       id="style2">.cls-1{font-size:36px;font-family:Arial-BoldMT, Arial;font-weight:700;}</style>
  </defs>
  <title
     id="title6">start1</title>
  <g
     aria-label="Bắt đầu"
     transform="translate(0,32.11)"
     id="text8"
     style="font-weight:700;font-size:36px;font-family:Arial-BoldMT, Arial"
     class="cls-1">
    <path
       d="M 2.6367188,-25.769531 H 12.9375 q 3.058594,0 4.552734,0.263672 1.511719,0.246093 2.689453,1.054687 1.195313,0.808594 1.986329,2.16211 0.791015,1.335937 0.791015,3.005859 0,1.810547 -0.984375,3.322265 -0.966797,1.511719 -2.636719,2.267579 2.355469,0.685546 3.621094,2.33789 1.265625,1.652344 1.265625,3.8847659 0,1.7578125 -0.826172,3.4277344 -0.808593,1.6523437 -2.232422,2.6542968 -1.40625,0.98437502 -3.480468,1.21289065 Q 16.382812,-0.03515625 11.408203,0 H 2.6367188 Z m 5.2031249,4.289062 v 5.958985 H 11.25 q 3.041016,0 3.779297,-0.08789 1.335937,-0.158203 2.091797,-0.914062 0.773437,-0.773438 0.773437,-2.021485 0,-1.195312 -0.667969,-1.933594 -0.65039,-0.755859 -1.951171,-0.914062 -0.773438,-0.08789 -4.447266,-0.08789 z m 0,10.248047 v 6.8906251 H 12.65625 q 2.8125,0 3.568359,-0.1582031 1.160157,-0.2109375 1.88086,-1.0195312 0.738281,-0.8261719 0.738281,-2.1972657 0,-1.1601562 -0.5625,-1.96875 -0.5625,-0.8085941 -1.634766,-1.1777341 -1.054687,-0.369141 -4.605468,-0.369141 z"
       style="font-weight:700;font-size:36px;font-family:Arial-BoldMT, Arial"
       id="path15" />
    <path
       d="m 32.273437,-12.972656 -4.482421,-0.808594 q 0.755859,-2.707031 2.601562,-4.007812 1.845703,-1.300782 5.484375,-1.300782 3.304688,0 4.921875,0.791016 1.617188,0.773437 2.267578,1.986328 0.667969,1.195312 0.667969,4.412109 l -0.05273,5.7656254 q 0,2.4609375 0.228515,3.6386718 Q 44.15625,-1.3359375 44.806641,0 h -4.886719 q -0.19336,-0.4921875 -0.47461,-1.4589844 -0.123046,-0.4394531 -0.175781,-0.5800781 -1.265625,1.23046875 -2.707031,1.84570313 -1.441406,0.61523437 -3.076172,0.61523437 -2.882812,0 -4.552734,-1.5644531 -1.652344,-1.5644532 -1.652344,-3.9550781 0,-1.5820313 0.755859,-2.8125 0.75586,-1.2480469 2.109375,-1.8984376 1.371094,-0.6679692 3.9375,-1.1601562 3.462891,-0.650391 4.798828,-1.212891 v -0.492187 q 0,-1.423828 -0.703125,-2.021485 -0.703125,-0.615234 -2.654296,-0.615234 -1.31836,0 -2.056641,0.527344 -0.738281,0.509765 -1.195313,1.810547 z m 6.609375,4.0078122 q -0.949218,0.3164063 -3.005859,0.7558594 -2.056641,0.4394532 -2.689453,0.8613282 -0.966797,0.6855468 -0.966797,1.7402343 0,1.0371094 0.773438,1.7929688 0.773437,0.7558593 1.96875,0.7558593 1.335937,0 2.548828,-0.8789062 0.896484,-0.6679687 1.177734,-1.6347656 0.193359,-0.6328125 0.193359,-2.4082031 z m 0.175782,-17.2441402 h 2.408203 q -0.210938,2.390625 -1.6875,3.761718 -1.458985,1.353516 -3.796875,1.353516 -2.337891,0 -3.814453,-1.353516 -1.458985,-1.371093 -1.669922,-3.761718 h 2.408203 q 0.123047,1.248047 0.878906,1.898437 0.75586,0.632813 2.197266,0.632813 1.441406,0 2.197265,-0.632813 0.75586,-0.65039 0.878907,-1.898437 z m -5.34375,-0.949219 2.267578,-4.957031 h 5.537109 l -4.675781,4.957031 z"
       style="font-weight:700;font-size:36px;font-family:Arial-BoldMT, Arial"
       id="path17" />
    <path
       d="m 57.164062,-18.667969 v 3.9375 h -3.375 v 7.5234378 q 0,2.2851562 0.08789,2.671875 0.105469,0.3691406 0.439453,0.6152343 0.351563,0.2460938 0.84375,0.2460938 0.685547,0 1.986328,-0.4746094 l 0.421875,3.83203125 Q 55.845703,0.421875 53.666016,0.421875 q -1.335938,0 -2.408204,-0.43945313 -1.072265,-0.45703125 -1.582031,-1.16015627 -0.492187,-0.7207031 -0.685547,-1.9335937 -0.158203,-0.8613282 -0.158203,-3.4804688 v -8.1386721 h -2.267578 v -3.9375 h 2.267578 v -3.708984 l 4.957031,-2.882813 v 6.591797 z"
       style="font-weight:700;font-size:36px;font-family:Arial-BoldMT, Arial"
       id="path19" />
    <path
       d="m 82.775391,-20.654297 h -5.326172 v -3.287109 h 5.326172 v -1.828125 h 4.939453 v 1.828125 h 1.951172 v 3.287109 H 87.714844 V 0 h -4.587891 v -2.7421875 q -1.142578,1.5996094 -2.707031,2.390625 -1.546875,0.7734375 -3.128906,0.7734375 -3.216797,0 -5.519532,-2.5839844 -2.285156,-2.6015625 -2.285156,-7.2421875 0,-4.7460941 2.232422,-7.2070311 2.232422,-2.478516 5.642578,-2.478516 3.128906,0 5.414063,2.601563 z M 74.53125,-9.7382813 q 0,2.9882813 0.826172,4.3242188 1.195312,1.9335937 3.339844,1.9335937 1.705078,0 2.90039,-1.4414062 1.195313,-1.4589844 1.195313,-4.3417969 0,-3.2167971 -1.160157,-4.6230471 -1.160156,-1.423828 -2.970703,-1.423828 -1.757812,0 -2.953125,1.40625 -1.177734,1.388672 -1.177734,4.1660157 z"
       style="font-weight:700;font-size:36px;font-family:Arial-BoldMT, Arial"
       id="path21" />
    <path
       d="m 96.275391,-12.972656 -4.482422,-0.808594 q 0.755859,-2.707031 2.601562,-4.007812 1.845703,-1.300782 5.484375,-1.300782 3.304684,0 4.921874,0.791016 1.61719,0.773437 2.26758,1.986328 0.66797,1.195312 0.66797,4.412109 l -0.0527,5.7656254 q 0,2.4609375 0.22852,3.6386718 Q 108.1582,-1.3359375 108.80859,0 h -4.88671 q -0.19336,-0.4921875 -0.47461,-1.4589844 -0.12305,-0.4394531 -0.17579,-0.5800781 -1.26562,1.23046875 -2.70703,1.84570313 -1.441403,0.61523437 -3.076169,0.61523437 -2.882812,0 -4.552734,-1.5644531 -1.652344,-1.5644532 -1.652344,-3.9550781 0,-1.5820313 0.755859,-2.8125 0.75586,-1.2480469 2.109375,-1.8984376 1.371094,-0.6679692 3.9375,-1.1601562 3.462893,-0.650391 4.798833,-1.212891 v -0.492187 q 0,-1.423828 -0.70313,-2.021485 -0.70312,-0.615234 -2.654296,-0.615234 -1.31836,0 -2.056641,0.527344 -0.738281,0.509765 -1.195312,1.810547 z m 6.609379,4.0078122 q -0.94922,0.3164063 -3.005864,0.7558594 -2.05664,0.4394532 -2.689453,0.8613282 -0.966797,0.6855468 -0.966797,1.7402343 0,1.0371094 0.773438,1.7929688 0.773437,0.7558593 1.96875,0.7558593 1.335936,0 2.548826,-0.8789062 0.89649,-0.6679687 1.17774,-1.6347656 0.19336,-0.6328125 0.19336,-2.4082031 z m -8.789067,-12.0585932 3.691406,-5.185547 h 4.570311 l 3.63867,5.185547 h -3.97265 l -2.039065,-2.619141 -1.898438,2.619141 z m 8.314457,-6.134766 h -3.111332 l -4.851562,-4.957031 h 5.537109 z"
       style="font-weight:700;font-size:36px;font-family:Arial-BoldMT, Arial"
       id="path23" />
    <path
       d="m 124.89258,0 v -2.7949219 q -1.01953,1.4941407 -2.68945,2.35546877 -1.65235,0.86132813 -3.49805,0.86132813 -1.88086,0 -3.375,-0.82617188 Q 113.83594,-1.2304687 113.16797,-2.7246094 112.5,-4.21875 112.5,-6.8554687 V -18.667969 h 4.93945 v 8.578125 q 0,3.9375003 0.26368,4.8339846 0.28125,0.8789063 1.00195,1.40625 0.7207,0.5097656 1.82812,0.5097656 1.26563,0 2.26758,-0.6855468 1.00195,-0.703125 1.3711,-1.7226563 0.36914,-1.0371093 0.36914,-5.0449221 v -7.875 h 4.93945 V 0 Z"
       style="font-weight:700;font-size:36px;font-family:Arial-BoldMT, Arial"
       id="path25" />
  </g>
</svg>
