<svg id="bold" enable-background="new 0 0 24 24" height="512" viewBox="0 0 24 24" width="512" xmlns="http://www.w3.org/2000/svg"><g><path d="m15.483 2h-6.966c-1.113 0-2.017.925-2.017 2.063v11.812.563 1.5c0 1.139.903 2.062 2.017 2.062h6.967c1.114 0 2.017-.923 2.017-2.062v-1.5-.563-11.812c-.001-1.138-.905-2.063-2.018-2.063zm.55 15h-8.066v-12.562c0-.518.411-.938.916-.938h6.233c.506 0 .917.42.917.938z"/></g><g><path d="m4.207 5.793-1.755-1.755 1.717-1.545c.41-.369.443-1.001.074-1.412-.37-.411-1.001-.444-1.412-.074l-2.5 2.25c-.204.183-.323.443-.331.717-.007.274.099.54.293.733l1.793 1.793-1.793 1.793c-.391.391-.391 1.023 0 1.414l1.793 1.793-1.793 1.793c-.391.391-.391 1.023 0 1.414l1.793 1.793-1.793 1.793c-.194.194-.3.459-.293.733.008.274.127.533.331.717l2.5 2.25c.191.173.431.257.669.257.273 0 .546-.112.743-.331.369-.411.336-1.043-.074-1.412l-1.717-1.545 1.755-1.755c.391-.391.391-1.023 0-1.414l-1.793-1.793 1.793-1.793c.391-.391.391-1.023 0-1.414l-1.793-1.793 1.793-1.793c.391-.391.391-1.023 0-1.414z"/></g><g><path d="m24 3.974c-.008-.274-.127-.534-.331-.717l-2.5-2.25c-.41-.37-1.042-.335-1.412.074-.369.411-.336 1.043.074 1.412l1.717 1.545-1.755 1.755c-.391.391-.391 1.023 0 1.414l1.793 1.793-1.793 1.793c-.391.391-.391 1.023 0 1.414l1.793 1.793-1.793 1.793c-.391.391-.391 1.023 0 1.414l1.755 1.755-1.717 1.545c-.41.369-.443 1.001-.074 1.412.197.219.47.331.743.331.238 0 .478-.085.669-.257l2.5-2.25c.204-.183.323-.443.331-.717.007-.274-.099-.54-.293-.733l-1.793-1.793 1.793-1.793c.391-.391.391-1.023 0-1.414l-1.793-1.793 1.793-1.793c.391-.391.391-1.023 0-1.414l-1.793-1.793 1.793-1.793c.194-.194.3-.459.293-.733z"/></g></svg>